<?xml version="1.0" encoding="utf-8"?>
<!-- Generator: Adobe Illustrator 22.1.0, SVG Export Plug-In . SVG Version: 6.00 Build 0)  -->
<svg version="1.1" id="Layer_1" xmlns="http://www.w3.org/2000/svg" xmlns:xlink="http://www.w3.org/1999/xlink" x="0px" y="0px"
	 viewBox="0 0 80 68" style="enable-background:new 0 0 80 68;" xml:space="preserve">
<style type="text/css">
	.st0{fill:#6843A3;}
	.st1{fill:#9BDB52;}
</style>
<g>
	<g>
		<path class="st0" d="M75.4,52.3c-0.1,0-0.2-0.1-0.2-0.1l-17.9-11c-0.8-0.5-1.3-1.4-1.3-2.4s0.6-1.8,1.5-2.3
			c3.1-1.9-15.7-1.9-14.1,0c0.6,0.7,1.4,1.3,1.5,2.3c0,1-0.4,1.9-1.3,2.4l-17.9,11c-2.4,1.2-3.8,3.4-3.8,5.8v1.9H79V58
			C79,55.5,77.6,53.3,75.4,52.3z"/>
		<circle class="st0" cx="50.5" cy="20.7" r="18.8"/>
	</g>
</g>
<g>
	<g>
		<path class="st1" d="M54.5,60.7c-0.1,0-0.2-0.1-0.2-0.1l-17.9-11c-0.8-0.5-1.3-1.4-1.3-2.4s0.6-1.8,1.5-2.3
			c3.1-1.9-15.7-1.9-14.1,0c0.6,0.7,1.4,1.3,1.5,2.3c0,1-0.4,1.9-1.3,2.4l-17.9,11C2.4,61.7,1,63.9,1,66.3v1.9h57.1v-1.9
			C58.1,63.9,56.7,61.7,54.5,60.7z"/>
		<circle class="st1" cx="29.5" cy="29" r="18.8"/>
	</g>
</g>
</svg>
